<?xml version="1.0" encoding="UTF-8" standalone="no"?>
<!-- Created with Inkscape (http://www.inkscape.org/) -->

<svg
   viewBox="0 0 94.234505 117.73959"
   version="1.1"
   id="svg5"
   xmlSpace="preserve"
   xmlns="http://www.w3.org/2000/svg"
   xmlnsSvg="http://www.w3.org/2000/svg"><defs
     id="defs2" /><g
     id="layer1"
     transform="translate(105.91893,53.714053)"><path
       style="fill:#219121;stroke:none;stroke-width:0.264583"
       d="m -11.691574,-53.714055 c -12.38568,10.08632 -25.16188,16.64558 -40.48125,21.24078 -5.0628,1.518678 -10.22165,2.648718 -15.34584,3.928138 -1.35704,0.33877 -4.69847,0.49712 -5.54884,1.69 -0.99959,1.402288 -0.27199,5.317858 -0.27199,7.007748 v 18.5208399 h 29.36875 V -15 h 12.96459 v 52.831781 h -12.96459 V 9.7859509 h -29.36875 V 37.831781 h -12.96458 v -60.325 c -24.679206,10.27483 -20.683926,42.36297 -16.457036,63.5 1.04592,5.23029 2.29322,10.42141 3.523056,15.61042 0.40161,1.6944 0.31665,4.447909 1.87801,5.553869 1.78407,1.26339 4.52719,0.63209 6.55805,0.87154 6.12548,0.72284 12.35366,0.98293 18.52083,0.98293 6.92891,0 13.90386,-0.54954 20.63751,-2.28336 3.683,-0.948 7.28159,-2.40982 10.58333,-4.297619 10.73758,-6.1394 16.22795,-17.14263 18.57374,-28.87319 3.55521,-17.77868 0.84217,-36.2828501 2.63764,-54.239591 0.63341,-6.335895 1.56792,-12.812925 3.87403,-18.785415 0.73342,-1.89963 1.50733,-3.80172 2.55111,-5.55625 0.67283,-1.13107 1.8415,-2.32447 1.73223,-3.70417 m -19.31458,25.929168 V -18.5 l -12.96459,4.1e-5 v -9.284891 z"
       id="path5578" /></g></svg>
