<?xml version="1.0" encoding="UTF-8" standalone="no"?>
<svg
   width="16.000895"
   height="12"
   fill="currentColor"
   class="bi bi-box-arrow-right"
   viewBox="0 0 16.000895 12"
   version="1.1"
   id="svg2"
   sodipodi:docname="logout.svg"
   xmlns:inkscape="http://www.inkscape.org/namespaces/inkscape"
   xmlns:sodipodi="http://sodipodi.sourceforge.net/DTD/sodipodi-0.dtd"
   xmlns="http://www.w3.org/2000/svg"
   xmlns:svg="http://www.w3.org/2000/svg">
  <defs
     id="defs2" />
  <sodipodi:namedview
     id="namedview2"
     pagecolor="#ffffff"
     bordercolor="#666666"
     borderopacity="1.0"
     inkscape:showpageshadow="2"
     inkscape:pageopacity="0.0"
     inkscape:pagecheckerboard="0"
     inkscape:deskcolor="#d1d1d1" />
  <path
     fill-rule="evenodd"
     d="M 10,10.5 A 0.5,0.5 0 0 1 9.5,11 h -8 A 0.5,0.5 0 0 1 1,10.5 v -9 A 0.5,0.5 0 0 1 1.5,1 h 8 A 0.5,0.5 0 0 1 10,1.5 v 2 a 0.5,0.5 0 0 0 1,0 v -2 A 1.5,1.5 0 0 0 9.5,0 h -8 A 1.5,1.5 0 0 0 0,1.5 v 9 A 1.5,1.5 0 0 0 1.5,12 h 8 A 1.5,1.5 0 0 0 11,10.5 v -2 a 0.5,0.5 0 0 0 -1,0 z"
     id="path1"
     style="fill:#ffffff"
     inkscape:export-filename="logoutWhite.svg"
     inkscape:export-xdpi="96"
     inkscape:export-ydpi="96" />
  <path
     fill-rule="evenodd"
     d="m 15.854,6.354 a 0.5,0.5 0 0 0 0,-0.708 l -3,-3 A 0.5006316,0.5006316 0 0 0 12.146,3.354 L 14.293,5.5 H 5.5 a 0.5,0.5 0 0 0 0,1 h 8.793 l -2.147,2.146 a 0.5006316,0.5006316 0 0 0 0.708,0.708 z"
     id="path2"
     style="fill:#ffffff" />
</svg>
